<svg version="1.1" xmlns="http://www.w3.org/2000/svg" xmlns:xlink="http://www.w3.org/1999/xlink" x="0px" y="0px"
	 viewBox="0 0 3600 2000" style="enable-background:new 0 0 3600 2000;" xml:space="preserve">
<style type="text/css">
	.st0{fill:url(#SVGID_1_);}
	.st1{fill:url(#SVGID_2_);}
	.st2{fill:#13242B;}
	.st3{fill:url(#SVGID_3_);}
	.st4{fill:#8FBBFF;}
	.st5{fill:#FFFFFF;}
	.st6{fill:url(#SVGID_4_);}
	.st7{fill:#EDFDFC;}
	.st8{fill:url(#SVGID_5_);}
	.st9{fill:url(#SVGID_6_);}
	.st10{fill:url(#SVGID_7_);}
	.st11{fill:url(#SVGID_8_);}
	.st12{fill:#EFEFEF;}
	.st13{fill:url(#SVGID_9_);}
	.st14{fill:url(#SVGID_10_);}
	.st15{fill:url(#SVGID_11_);}
	.st16{fill:url(#SVGID_12_);}
	.st17{fill:#005C7E;}
	.st18{fill:url(#SVGID_13_);}
	.st19{fill:url(#SVGID_14_);}
	.st20{fill:url(#SVGID_15_);}
	.st21{fill:url(#SVGID_16_);}
	.st22{fill:url(#SVGID_17_);}
	.st23{fill:url(#SVGID_18_);}
	.st24{fill:url(#SVGID_19_);}
	.st25{fill:url(#SVGID_20_);}
	.st26{fill:url(#SVGID_21_);}
	.st27{fill:url(#SVGID_22_);}
	.st28{fill:#F7A491;}
	.st29{fill:#07305A;}
	.st30{fill:#F8A492;}
	.st31{fill:#FE875E;}
	.st32{fill:url(#SVGID_23_);}
	.st33{fill:url(#SVGID_24_);}
	.st34{fill:url(#SVGID_25_);}
	.st35{fill:url(#SVGID_26_);}
	.st36{fill:url(#SVGID_27_);}
	.st37{fill:url(#SVGID_28_);}
	.st38{fill:url(#SVGID_29_);}
	.st39{fill:url(#SVGID_30_);}
	.st40{fill:url(#SVGID_31_);}
	.st41{fill:url(#SVGID_32_);}
</style>
<g id="Ñëîé_2">
</g>
<g id="Layer_1">
	<g>
		<linearGradient id="SVGID_1_" gradientUnits="userSpaceOnUse" x1="726.3234" y1="832.2076" x2="840.0972" y2="832.2076">
			<stop  offset="0" style="stop-color:#53CD9F"/>
			<stop  offset="1" style="stop-color:#267AB3"/>
		</linearGradient>
		<polygon class="st0" points="827.4,805.9 815.9,827.2 779.5,812.4 758.7,841.6 729.7,835 726.3,849.7 765.2,858.5 784.8,830.9 
			822.7,846.3 840.1,814.2 		"/>
		<g>
			<linearGradient id="SVGID_2_" gradientUnits="userSpaceOnUse" x1="3558.1382" y1="1174.9769" x2="634.4716" y2="2629.4663">
				<stop  offset="4.475343e-07" style="stop-color:#56B7D6"/>
				<stop  offset="1" style="stop-color:#0D6982"/>
			</linearGradient>
			<rect x="2905.1" y="878.1" class="st1" width="339.5" height="1074.6"/>
			<rect x="3102.9" y="946.8" class="st2" width="85" height="134.6"/>
			<rect x="3104" y="1132.9" class="st2" width="85" height="134.6"/>
			<rect x="3105.1" y="1319" class="st2" width="85" height="134.6"/>
			<rect x="3106.3" y="1505.2" class="st2" width="85" height="134.6"/>
			<rect x="3107.4" y="1691.3" class="st2" width="85" height="134.6"/>
		</g>
		<linearGradient id="SVGID_3_" gradientUnits="userSpaceOnUse" x1="3514.0393" y1="1086.3322" x2="590.3751" y2="2540.8203">
			<stop  offset="4.475343e-07" style="stop-color:#56B7D6"/>
			<stop  offset="1" style="stop-color:#0D6982"/>
		</linearGradient>
		<rect x="2191" y="1367.4" class="st3" width="339.5" height="585.3"/>
		<g>
			<rect x="2409" y="376.4" class="st4" width="560.3" height="1576.3"/>
			<g>
				<rect x="2484.8" y="468.5" class="st5" width="129.1" height="57"/>
				<rect x="2686.8" y="468.5" class="st5" width="129.1" height="57"/>
			</g>
		</g>
		<g>
			<linearGradient id="SVGID_4_" gradientUnits="userSpaceOnUse" x1="680.4166" y1="1763.0146" x2="1038.9353" y2="1763.0146">
				<stop  offset="4.475343e-07" style="stop-color:#8CF0F2"/>
				<stop  offset="1" style="stop-color:#0D7AD3"/>
			</linearGradient>
			<rect x="680.4" y="1572.5" class="st6" width="358.5" height="380.9"/>
			<rect x="726.4" y="1594.8" class="st7" width="53" height="53"/>
			<rect x="802.6" y="1594.8" class="st7" width="53" height="53"/>
			<rect x="726.4" y="1669.1" class="st7" width="53" height="53"/>
			<rect x="802.6" y="1669.1" class="st7" width="53" height="53"/>
			<rect x="730.6" y="1753.4" class="st7" width="53" height="53"/>
			<rect x="806.7" y="1753.4" class="st7" width="53" height="53"/>
			<rect x="730.6" y="1827.7" class="st7" width="53" height="53"/>
			<rect x="806.7" y="1827.7" class="st7" width="53" height="53"/>
		</g>
		<g>
			<linearGradient id="SVGID_5_" gradientUnits="userSpaceOnUse" x1="3172.4016" y1="399.6078" x2="248.7363" y2="1854.0966">
				<stop  offset="0" style="stop-color:#53CDD3"/>
				<stop  offset="1" style="stop-color:#0D6BA0"/>
			</linearGradient>
			<rect x="375.7" y="1460.2" class="st8" width="339.5" height="492.5"/>
			<rect x="402.6" y="1486.4" class="st7" width="53" height="53"/>
			<rect x="478.8" y="1486.4" class="st7" width="53" height="53"/>
			<rect x="402.6" y="1560.7" class="st7" width="53" height="53"/>
			<rect x="478.8" y="1560.7" class="st7" width="53" height="53"/>
			<rect x="398.2" y="1642.8" class="st7" width="53" height="53"/>
			<rect x="474.4" y="1642.8" class="st7" width="53" height="53"/>
			<rect x="398.2" y="1717.1" class="st7" width="53" height="53"/>
			<rect x="474.4" y="1717.1" class="st7" width="53" height="53"/>
		</g>
		<g>
			<linearGradient id="SVGID_6_" gradientUnits="userSpaceOnUse" x1="1211.9476" y1="242.124" x2="1438.9303" y2="242.124">
				<stop  offset="0" style="stop-color:#53CDD3"/>
				<stop  offset="1" style="stop-color:#0D6BA0"/>
			</linearGradient>
			<path class="st9" d="M1428.5,279.1l-107,72.4c-10.9,7.4-25.6,4.5-33-6.4l-72.4-107c-7.4-10.9-4.5-25.6,6.4-33l107-72.4
				c10.9-7.4,25.6-4.5,33,6.4l72.4,107C1442.2,257,1439.3,271.8,1428.5,279.1z"/>
			<path class="st5" d="M1374.7,203.2c18.7,27.7,11.5,65.4-16.2,84.1c-27.7,18.7-65.4,11.5-84.1-16.2
				c-18.7-27.7-11.5-65.4,16.2-84.1C1318.3,168.2,1355.9,175.5,1374.7,203.2z"/>
			<path class="st4" d="M1304.6,212.3l24.8,27.1c1.8,2,1.7,5.1-0.3,6.9s-5.1,1.7-6.9-0.3c-0.3-0.3-0.5-0.7-0.7-1.1L1304.6,212.3z"/>
			<path class="st4" d="M1323.5,239.6l37.5-21l-32.7,27.9c-1.8,1.5-4.4,1.3-5.9-0.5c-1.5-1.8-1.3-4.4,0.5-5.9
				C1323,239.9,1323.2,239.7,1323.5,239.6z"/>
		</g>
		<linearGradient id="SVGID_7_" gradientUnits="userSpaceOnUse" x1="2038.0824" y1="187.2589" x2="2090.8088" y2="187.2589">
			<stop  offset="0" style="stop-color:#53CDD3"/>
			<stop  offset="1" style="stop-color:#0D6BA0"/>
		</linearGradient>
		<polygon class="st10" points="2061.8,138 2054.8,156.2 2070.2,165.2 2060.8,185.5 2082,189.7 2072.5,212.8 2090.8,219 
			2085.6,241.6 2075.9,242.1 2079.8,225.3 2060.5,218.7 2069.7,196.5 2048.1,192.2 2058.4,169.8 2043.5,161 2049.9,144.2 
			2038.1,140.6 2043.4,132.4 		"/>
		<g>
			<g>
				<linearGradient id="SVGID_8_" gradientUnits="userSpaceOnUse" x1="458.7131" y1="905.7445" x2="595.9308" y2="905.7445">
					<stop  offset="0" style="stop-color:#6A0094"/>
					<stop  offset="1" style="stop-color:#006CBF"/>
				</linearGradient>
				<path class="st11" d="M591.4,881.3c13.5,35.4-4.2,75-39.6,88.5c-35.4,13.5-75-4.3-88.5-39.7c-13.5-35.4,4.2-75,39.6-88.5
					C538.3,828.2,577.9,845.9,591.4,881.3z"/>
				<path class="st12" d="M496.9,929c7.2,18.9,28.4,28.4,47.3,21.2c18.9-7.2,28.4-28.4,21.2-47.3L496.9,929z"/>
			</g>
		</g>
		<linearGradient id="SVGID_9_" gradientUnits="userSpaceOnUse" x1="866.7178" y1="362.4262" x2="912.5685" y2="362.4262">
			<stop  offset="0" style="stop-color:#53CDD3"/>
			<stop  offset="1" style="stop-color:#0D6BA0"/>
		</linearGradient>
		<polygon class="st13" points="912.6,407 892.9,394.2 910,360.3 883.5,338.1 892.1,310.7 878.2,306.3 866.7,343 891.8,364.1 
			874,399.3 903.6,418.5 		"/>
		<g>
			<path class="st7" d="M2923.3,111.9l27.3,15.4c0,0,49.2-5.9,55.6-14.4c6.4-8.5,12.2-31.2,18.9-30.5c6.7,0.7,19,5.3,19,21.6
				c0,11.8-23.1,41.4-21.2,45.4c1.2,2.5,16.6,11.8,28,18.4c7.5,4.3,11.9,12.5,11.4,21.3l0,0c-0.3,5.9-4.7,10.9-10.5,11.9l-9,1.6
				l1,9.2c0.7,6.8-4.2,13.1-11,14l-6.9,0.9l1,5.7c1.3,7.3-3.9,14.3-11.3,15l-6,0.5l-0.1,1.6c-0.3,6.5-5.4,11.8-11.8,12.2l-5.9,0.4
				l-72.7-40.9c-6.8-3.8-12.7-9-17.4-15.3l-23.1-18.7c-2.5-2-3.1-5.6-1.5-8.4l37.5-64.2C2916.3,111.3,2920.3,110.2,2923.3,111.9z"/>
		</g>
		<linearGradient id="SVGID_10_" gradientUnits="userSpaceOnUse" x1="1548.2029" y1="248.5581" x2="1616.2388" y2="248.5581">
			<stop  offset="0" style="stop-color:#6A0094"/>
			<stop  offset="1" style="stop-color:#006CBF"/>
		</linearGradient>
		<polygon class="st14" points="1611.6,227.5 1591.2,225.9 1588.4,244.7 1568.2,244 1563.4,261.7 1548.2,263.6 1549.2,271.3 
			1569.5,268.7 1574.1,251.9 1595,252.7 1597.8,234.2 1616.2,235.6 		"/>
		<g>
			<linearGradient id="SVGID_11_" gradientUnits="userSpaceOnUse" x1="1067.7034" y1="399.7575" x2="1150.0273" y2="399.7575">
				<stop  offset="0" style="stop-color:#6A0094"/>
				<stop  offset="1" style="stop-color:#006CBF"/>
			</linearGradient>
			<path class="st15" d="M1148.2,406.7l-24.8,7.6l-7.8,24.8c-0.6,2-3.3,2.4-4.5,0.7l-14.9-21.2l-26,0.2c-2.1,0-3.3-2.4-2-4.1
				l15.6-20.8l-8.3-24.6c-0.7-2,1.2-3.9,3.2-3.2l24.6,8.4l20.9-15.5c1.7-1.2,4.1,0,4,2.1l-0.4,26l21.2,15.1
				C1150.7,403.4,1150.2,406.1,1148.2,406.7z"/>
		</g>
		<g>
			<linearGradient id="SVGID_12_" gradientUnits="userSpaceOnUse" x1="554.7688" y1="1164.5569" x2="637.093" y2="1164.5569">
				<stop  offset="4.475343e-07" style="stop-color:#450094"/>
				<stop  offset="1" style="stop-color:#7FA8FF"/>
			</linearGradient>
			<path class="st16" d="M635.3,1171.5l-24.8,7.6l-7.8,24.8c-0.6,2-3.3,2.4-4.5,0.7l-14.9-21.2l-26,0.3c-2.1,0-3.3-2.4-2-4.1
				l15.6-20.8l-8.3-24.6c-0.7-2,1.2-3.9,3.2-3.2l24.6,8.4l20.9-15.5c1.7-1.2,4.1,0,4,2.1l-0.4,26L636,1167
				C637.7,1168.2,637.3,1170.9,635.3,1171.5z"/>
		</g>
		<g>
			<path class="st17" d="M1041.5,1270.7h350.6V892.1h-239.9c-61.1,0-110.7,49.5-110.7,110.7V1270.7z"/>
			<path class="st4" d="M1448.8,1804.4h-578l-8.2-414.9c-0.1-7.2,1-14.4,3.4-21.2l119.3-338.7c9.3-26.3,35.5-44,65.1-44h398.4
				V1804.4z"/>
			<path class="st2" d="M862.6,1804.4h41.8c9.5,0,17.3-7.7,17.3-17.3V1681c0-9.5-7.7-17.3-17.3-17.3h-41.8V1804.4z"/>
			<g>
				<path class="st2" d="M819.3,1221.7H801v-64.1c0-52.6,42.8-95.5,95.5-95.5h155.6v18.3H896.4c-42.5,0-77.2,34.6-77.2,77.2V1221.7z
					"/>
			</g>
			<path class="st2" d="M788.2,1353.8H836c14.6,0,26.5-11.8,26.5-26.5v-119.7c0-14.6-11.8-26.5-26.5-26.5h-47.8
				c-14.6,0-26.5,11.8-26.5,26.5v119.7C761.7,1341.9,773.6,1353.8,788.2,1353.8z"/>
			<path class="st4" d="M778.2,1323.2v-111.5c0-7.8,6.3-14.1,14.1-14.1h39.5c7.8,0,14.1,6.3,14.1,14.1v111.5
				c0,7.8-6.3,14.1-14.1,14.1h-39.5C784.5,1337.3,778.2,1331,778.2,1323.2z"/>
			<path class="st2" d="M990.6,1369.5h301.1c18.7,0,33.8-15.1,33.8-33.8v-247.6c0-18.7-15.1-33.8-33.8-33.8h-225.2
				c-14.9,0-28,9.7-32.3,23.9l-75.9,247.6C951.6,1347.5,967.8,1369.5,990.6,1369.5z"/>
			<linearGradient id="SVGID_13_" gradientUnits="userSpaceOnUse" x1="1250.3894" y1="1788.2291" x2="1157.3419" y2="1342.5796">
				<stop  offset="0" style="stop-color:#53CDD3"/>
				<stop  offset="1" style="stop-color:#0D6BA0"/>
			</linearGradient>
			<path class="st18" d="M999.8,1190.3l-41.5,135.5c-6.7,21.7,9.6,43.7,32.3,43.7h301.1c18.7,0,33.8-15.1,33.8-33.8v-145.4H999.8z"
				/>
			
				<ellipse transform="matrix(0.7071 -0.7071 0.7071 0.7071 -943.0285 1317.8682)" class="st2" cx="1119.3" cy="1797.3" rx="167.7" ry="167.7"/>
			<ellipse class="st2" cx="2633.4" cy="1794.7" rx="160.5" ry="165.1"/>
			<linearGradient id="SVGID_14_" gradientUnits="userSpaceOnUse" x1="2982.3042" y1="94.8299" x2="1933.8969" y2="1485.3256">
				<stop  offset="4.475343e-07" style="stop-color:#450094"/>
				<stop  offset="1" style="stop-color:#7FA8FF"/>
			</linearGradient>
			<path class="st19" d="M1427.5,1574.6h1683.7c19.6,0,35.4-15.9,35.4-35.4V541.8c0-19.6-15.9-35.4-35.4-35.4H1427.5
				c-19.6,0-35.4,15.9-35.4,35.4v997.3C1392.1,1558.7,1407.9,1574.6,1427.5,1574.6z"/>
			<path class="st2" d="M3099.3,1531c2,0,3.7-1.6,3.7-3.7V553.7c0-2-1.6-3.7-3.7-3.7h-829.1v981H3099.3z"/>
			<path class="st7" d="M3099.3,810.1c2,0,3.7-0.4,3.7-1V550.7c0-0.5-1.6-1-3.7-1h-829.1v260.4H3099.3z"/>
			<linearGradient id="SVGID_15_" gradientUnits="userSpaceOnUse" x1="1206.6052" y1="356.5749" x2="2181.155" y2="1438.8652">
				<stop  offset="4.475343e-07" style="stop-color:#8CF0F2"/>
				<stop  offset="1" style="stop-color:#0D7AD3"/>
			</linearGradient>
			<path class="st20" d="M1439.3,506.4h787.3v1068.1h-787.3c-26.1,0-47.3-21.2-47.3-47.3V553.7
				C1392.1,527.6,1413.2,506.4,1439.3,506.4z"/>
			<linearGradient id="SVGID_16_" gradientUnits="userSpaceOnUse" x1="3091.5994" y1="1135.1135" x2="2425.571" y2="1793.7964">
				<stop  offset="8.950686e-07" style="stop-color:#8CE4F2"/>
				<stop  offset="1" style="stop-color:#0D7AD3"/>
			</linearGradient>
			<polygon class="st21" points="2663.5,1531 3016.7,1531 3016.7,1236.7 2663.5,1236.7 			"/>
			
				<rect x="2270.2" y="1179.1" transform="matrix(-1 -1.224647e-16 1.224647e-16 -1 4986.0586 2710.0959)" class="st4" width="445.6" height="351.8"/>
			<linearGradient id="SVGID_17_" gradientUnits="userSpaceOnUse" x1="2717.7546" y1="757.0997" x2="2051.7292" y2="1415.7797">
				<stop  offset="8.950686e-07" style="stop-color:#8CF0F2"/>
				<stop  offset="1" style="stop-color:#0D7AD3"/>
			</linearGradient>
			<polygon class="st22" points="2270.2,1179.1 2650.4,1179.1 2650.4,844.3 2270.2,844.3 			"/>
			<path class="st2" d="M1443.3,1804.4h1589.1v-229.8H1443.3c-18.2,0-32.9,14.7-32.9,32.9v164
				C1410.4,1789.7,1425.1,1804.4,1443.3,1804.4z"/>
			<linearGradient id="SVGID_18_" gradientUnits="userSpaceOnUse" x1="3523.678" y1="510.5032" x2="2480.5625" y2="1893.9802">
				<stop  offset="4.475343e-07" style="stop-color:#450094"/>
				<stop  offset="1" style="stop-color:#7FA8FF"/>
			</linearGradient>
			<polygon class="st23" points="3016.7,1605.6 2250.2,1605.6 2250.2,1776.9 3016.7,1776.9 			"/>
			<linearGradient id="SVGID_19_" gradientUnits="userSpaceOnUse" x1="3314.4165" y1="1687.7937" x2="3042.6189" y2="1692.6907">
				<stop  offset="0" style="stop-color:#6A0094"/>
				<stop  offset="1" style="stop-color:#006CBF"/>
			</linearGradient>
			<polygon class="st24" points="2275.4,1738.5 2496.9,1738.5 2496.9,1670.5 2275.4,1670.5 			"/>
			<linearGradient id="SVGID_20_" gradientUnits="userSpaceOnUse" x1="2275.4238" y1="1704.5182" x2="2409.0647" y2="1704.5182">
				<stop  offset="0" style="stop-color:#6A0094"/>
				<stop  offset="1" style="stop-color:#006CBF"/>
			</linearGradient>
			<polygon class="st25" points="2275.4,1738.5 2409.1,1738.5 2409.1,1670.5 2275.4,1670.5 			"/>
			<linearGradient id="SVGID_21_" gradientUnits="userSpaceOnUse" x1="2745.7698" y1="1704.5182" x2="2967.252" y2="1704.5182">
				<stop  offset="0" style="stop-color:#6A0094"/>
				<stop  offset="1" style="stop-color:#006CBF"/>
			</linearGradient>
			<polygon class="st26" points="2745.8,1738.5 2967.3,1738.5 2967.3,1670.5 2745.8,1670.5 			"/>
			<linearGradient id="SVGID_22_" gradientUnits="userSpaceOnUse" x1="3314.5876" y1="1697.3567" x2="3042.7896" y2="1702.2538">
				<stop  offset="0" style="stop-color:#6A0094"/>
				<stop  offset="1" style="stop-color:#006CBF"/>
			</linearGradient>
			<polygon class="st27" points="2867,1738.5 2967.3,1738.5 2967.3,1670.5 2867,1670.5 			"/>
			<ellipse class="st2" cx="2108.7" cy="1794.7" rx="160.5" ry="165.1"/>
			<ellipse class="st2" cx="2059.2" cy="1790.1" rx="160.5" ry="174.8"/>
			<ellipse class="st2" cx="1091.7" cy="1794.1" rx="160.5" ry="170.8"/>
			<path class="st17" d="M1012.7,1790.1c0,47.5,35.3,85.9,78.9,85.9c43.6,0,78.9-38.5,78.9-85.9c0-47.5-35.3-86-78.9-86
				C1048.1,1704.2,1012.7,1742.7,1012.7,1790.1z"/>
			<path class="st17" d="M1980.2,1790.1c0,47.5,35.3,85.9,78.9,85.9c43.6,0,78.9-38.5,78.9-85.9c0-47.5-35.3-86-78.9-86
				C2015.6,1704.2,1980.2,1742.7,1980.2,1790.1z"/>
			<path class="st4" d="M2751.4,742.6h-149.1l0,0c0,21.2,17.2,38.4,38.4,38.4h72.4C2734.2,780.9,2751.4,763.7,2751.4,742.6
				L2751.4,742.6z"/>
		</g>
		<g>
			<path class="st28" d="M1765.4,1862.5c0,0,12.6,12.4,12.8,17c0.3,4.6,1.1,53.4-4,57.9c-5.1,4.6-20.2,7.8-15.3,12.9
				c3.7,3.9,31.8,3,50.5,2c5.4-0.3,12.3-44.3,14.4-50.8c3.1-9.4,14.4-29.9,11.6-36.4c-1.4-3.2-11.7-10.5-21-16.6
				c-9.8-6.4-19.3-20.8-19.3-20.8L1765.4,1862.5z"/>
			<path class="st28" d="M1597.4,1893c0,0,11.2,32.2,11.2,32.3c0.8,5.1,4.1,17.7,4.1,22.3c0,17.4-77.5-14.8-60.1-22.5
				c1.6-0.7,6.5-6.3,7-12.2c0.8-9.1-6.5-20.6-6.5-20.6L1597.4,1893z"/>
			<g>
				<path class="st29" d="M1490.5,1282.2l-28,72.6c0,0-18.3,173.3-7.6,277.1c4.5,43.4,100.9,275.7,100.9,275.7l47.9-6.8l-64.2-275
					l23.6-105.2l33.4-207.9L1490.5,1282.2z"/>
				<path class="st17" d="M1622.6,1286l24.1,80.9l36.6,244.1l123.7,228.3c0,0-18.6,28.6-38.6,33.1l-175.6-230.8l-95.2-288.9
					l3.3-64.2L1622.6,1286z"/>
			</g>
			<path class="st30" d="M1348.2,1359c17.4-6.9,17.8-3.7,20-4.7c2.6-1.1,23.4-33.1,23.4-33.1s62-93.7,65.1-98.9l18.9-115.3l59.3-6.3
				c0,0-23.8,124.8-26.2,131.1c-2.4,6.3-100.8,123-109.1,133.5c0,0-5.3,16.3-9,26.5c-3.7,10.1-11.6,18.1-13.1,20.8
				c-0.2,0.4-5.6,9.1-15.1,17.9c-8.2,7.6-3.9-3.4-3.9-3.4s12.6-16.9,11.1-17.7c-1.2-0.6-7.5,9-16.5,17.6c-2.3,2.2-4.6,4.4-6.7,6.3
				c-5.5,5.2-10.3,3.2-5.3-3.2c1.7-2.2,4.7-5.9,7.2-8.2c2.7-2.5,4.4-5.6,6.3-8.1c3.9-4.8,6.8-8.3,6.5-8.4c-0.4-0.1-0.3-1.6-2.8,0.7
				c-3,2.7-8.2,9.9-13,13.6c-2.7,2.1-8.1,6.7-8.1,6.7s-9.5,6.6-10.1,6.1c-2.8-2.5,2.7-9.1,6.8-11.5c1.8-2.8,7.6-7.5,7.6-7.5
				s9.6-12.3,7.9-13.7c-1.4-1.2-30,23.7-32.6,21c-2.1-2.2,6.2-10,6.2-10s5.4-4.4,7-6c2-1.9,7.4-7.9,7.4-7.9s18-21.9,16.2-23.1
				c-1.7-1.2-7.4-2.5-8.9-1.5c-1.6,1-3.6,4.3-5.1,5.2c-1.6,1-4.5,0.8-5.8-1c-1.3-1.9,4.5-9.5,4.5-9.5S1343.2,1361,1348.2,1359z"/>
			<path class="st7" d="M1463.7,1142.9l68.3,7.1c0,0,3.1-56.7,3.1-83.8c0-32.8-4.7-74-8.6-72.9c-10.9,3-23.9,7.4-32.7,19.7
				C1463.4,1055.3,1463.7,1142.9,1463.7,1142.9z"/>
			<path class="st2" d="M1813.7,1848.2c0,0-26.4,81-37.8,85c-3,1.1-19.9,5.3-22.7,11.8c-0.1,0.2-0.1,0.4-0.2,0.6
				c-0.9,4.1,2.6,7.9,6.8,7.9h53.7c0,0,7.6-36.4,10.6-52.4c0,0,16-39.1,14.2-42.6C1836.6,1854.9,1813.7,1848.2,1813.7,1848.2z"/>
			<path class="st2" d="M1617.2,1953.4l-8.6-28.4c0,0-18.9,8-28.2,6.7c-9.3-1.3-27.5-6.7-27.5-6.7c-37.2,12.4-67.6,18.4-62.1,28.4
				l0,0H1617.2z"/>
			<path class="st31" d="M1375.2,1368c-6.3,5.5-13.3,7.8-21.4,6.1C1361.4,1379.8,1372,1375.4,1375.2,1368z"/>
			<path class="st7" d="M1613.9,989.5c0,0,36.1,5,45.7,12c10.7,7.9,43.9,44.6,43.9,44.6s-69.1,197.8-66.4,233
				c2.7,35.2,10.2,87.3,10.2,87.3s-134.1,8.5-184.9-11.6c0,0,16-79.7,16-100.7s9-230.2,15.4-241.2c6.4-11,19.3-17.2,43.8-22.5
				C1562.3,985,1613.9,989.5,1613.9,989.5z"/>
			<path class="st28" d="M1604.1,933l8.9,58.6c0,0-26.9,31-46.4,25c-16.4-5.1-12.1-28.1-12.1-28.1s8.9-33.1,6.2-49.7
				C1558.1,922.2,1604.1,933,1604.1,933z"/>
			<path class="st31" d="M1560.8,938.8c-2.7-16.6,43.3-5.8,43.3-5.8l0.7,4.9c-1.3,3.2-3,6-5,8.2c-10.3,11-26.3,17.6-40.2,18.1
				C1561,955.1,1561.9,945.6,1560.8,938.8z"/>
			<g>
				<path class="st28" d="M1611.6,850.1c1.3-0.5,10.4,66.7-6.9,85.2c-17.3,18.5-51,24.5-63.1,10c-13.4-16.1-12.7-88.3,14.2-107.3
					C1582.7,819,1611.6,850.1,1611.6,850.1z"/>
				<path class="st2" d="M1566.1,802c20.8,4.2,34.2,16.8,39.2,22.2c9.4,1.1,22.3,6.3,35.5,28.1c16.3,26.8,4.3,56.5-14.7,71
					c-19,14.6-18.7,31.3-18.7,31.3l-3-8.7c-2.2-6.6-3.1-13.6-2.4-20.5c0.4-4.1,1.3-8.6,3.1-12.3c4.6-9.7-9.8-16.2-13.8-24.3
					c-3.1-6.2-3.2-20.5-8.1-30.8l-5.8-7.9c0,0-13.5-10.4-26.6-7.5C1537.5,845.8,1539.4,796.6,1566.1,802z"/>
				<path class="st28" d="M1592.1,900.9c-0.1,8.2,3.6,14.9,8.4,15c4.8,0.1,8.7-6.5,8.9-14.7c0.1-8.2-3.6-14.9-8.4-15
					C1596.3,886.1,1592.3,892.7,1592.1,900.9z"/>
			</g>
			<linearGradient id="SVGID_23_" gradientUnits="userSpaceOnUse" x1="1567.8605" y1="1334.2145" x2="1838.5209" y2="1334.2145">
				<stop  offset="0" style="stop-color:#6A0094"/>
				<stop  offset="1" style="stop-color:#006CBF"/>
			</linearGradient>
			<rect x="1567.9" y="1216.8" class="st32" width="270.7" height="234.8"/>
			<rect x="1567.9" y="1216.8" class="st4" width="102.2" height="234.8"/>
			<path class="st30" d="M1771.7,1416.4c-3-11-8.4-28.4-8.4-28.4c0.7-14.4,13.4-177.3,11.6-184.2c-1.8-6.9-56.7-128.9-56.7-128.9
				l-46.1,43.4l53.3,110.7c0.4,6.5,4.6,126.3,4.6,126.3s2.2,36.9,0.7,39.6c-1.3,2.2-4.1,3.5-14.5,20.6c-3,4.9-3.3,13.3-3.3,13.3
				s-0.3,10.3,1.9,11c2.3,0.8,4.8-1,5.5-2.8c0.8-1.8,0.4-5.9,1.2-7.8c0.8-1.8,6.3-4.3,8.4-4.4c1.3-0.1,1.3,12.5,0.5,24.5
				c-0.3,4.8,3.2,8.8,7.9,9.7c2,0.4,3.1-1.5,5.3,0.7c3.1,1.3,7.8,0.2,10.2-0.4c3.2,1.1,9.6,1.5,12.1,0.1c0.5-0.1,0.9-0.2,1.4-0.3
				c3.3-0.8,5.6-3.6,5.8-7c0.3-5.6,0.1-9.2,0-9.5C1772.8,1439.3,1774.7,1427.4,1771.7,1416.4z"/>
			<path class="st7" d="M1748.3,1117l-60.4,47.2c0,0-26.7-25.6-40.1-53.9c-13.6-28.7-9.4-115.9,5.1-112.1
				C1685.2,1006.9,1748.3,1117,1748.3,1117z"/>
		</g>
		<path class="st17" d="M1017.8,1486.4h-78.7v-34.8h113.5l0,0C1052.6,1470.8,1037,1486.4,1017.8,1486.4z"/>
		<g>
			<linearGradient id="SVGID_24_" gradientUnits="userSpaceOnUse" x1="284.3474" y1="1959.2131" x2="3315.6526" y2="1959.2131">
				<stop  offset="0" style="stop-color:#53CDD3"/>
				<stop  offset="1" style="stop-color:#0D6BA0"/>
			</linearGradient>
			<path class="st33" d="M3301.4,1953.5H298.6c-7.9,0-14.2,2.6-14.2,5.7l0,0c0,3.2,6.4,5.7,14.2,5.7h3002.9c7.9,0,14.2-2.6,14.2-5.7
				l0,0C3315.7,1956.1,3309.3,1953.5,3301.4,1953.5z"/>
		</g>
		<g>
			<linearGradient id="SVGID_25_" gradientUnits="userSpaceOnUse" x1="1817.995" y1="205.795" x2="1900.7031" y2="205.795">
				<stop  offset="0" style="stop-color:#53CDD3"/>
				<stop  offset="1" style="stop-color:#0D6BA0"/>
			</linearGradient>
			<path class="st34" d="M1900.7,205.8c0,4-18.5,7.3-41.4,7.3c-22.8,0-41.4-3.3-41.4-7.3c0-4,18.5-7.3,41.4-7.3
				C1882.2,198.5,1900.7,201.8,1900.7,205.8z"/>
			<linearGradient id="SVGID_26_" gradientUnits="userSpaceOnUse" x1="1825.2819" y1="141.1235" x2="1893.4149" y2="141.1235">
				<stop  offset="0" style="stop-color:#6A0094"/>
				<stop  offset="1" style="stop-color:#006CBF"/>
			</linearGradient>
			<path class="st35" d="M1859.3,76.5c-18.8,0-34.1,13.6-34.1,30.4c0,16.8,34.1,98.9,34.1,98.9s34.1-82.2,34.1-98.9
				C1893.4,90.1,1878.2,76.5,1859.3,76.5z M1859.3,124.5c-8,0-14.5-6.5-14.5-14.5s6.5-14.5,14.5-14.5c8,0,14.5,6.5,14.5,14.5
				S1867.3,124.5,1859.3,124.5z"/>
		</g>
		<g>
			<linearGradient id="SVGID_27_" gradientUnits="userSpaceOnUse" x1="706.0048" y1="559.3303" x2="856.1941" y2="559.3303">
				<stop  offset="4.475343e-07" style="stop-color:#450094"/>
				<stop  offset="1" style="stop-color:#7FA8FF"/>
			</linearGradient>
			<polygon class="st36" points="856.2,501.9 706,590.7 821.1,616.8 			"/>
			<linearGradient id="SVGID_28_" gradientUnits="userSpaceOnUse" x1="697.2507" y1="601.5107" x2="925.1908" y2="601.5107">
				<stop  offset="4.475343e-07" style="stop-color:#450094"/>
				<stop  offset="1" style="stop-color:#7FA8FF"/>
			</linearGradient>
			<polygon class="st37" points="831.9,635.3 697.3,604.8 752.4,697.9 925.2,595.7 871.6,505.1 			"/>
		</g>
		<g>
			<linearGradient id="SVGID_29_" gradientUnits="userSpaceOnUse" x1="2244.9258" y1="166.3022" x2="2424.3696" y2="166.3022">
				<stop  offset="0" style="stop-color:#53CDD3"/>
				<stop  offset="1" style="stop-color:#0D6BA0"/>
			</linearGradient>
			<path class="st38" d="M2424.4,160.7c-14.6,31.7-39.2,50.5-73.9,54.2c-34.5,3.7-62.6-9.9-85.7-35.4c-4.6,3.1-9.2,6.2-14.2,9.6
				c-1.9-24.2-3.8-47.9-5.7-72c21.8,10.4,43.2,20.6,65.2,31c-4.9,3.4-9.7,6.7-14.5,10c7.9,17.7,31.5,38.2,63.2,37.6
				C2386.6,195.3,2407.9,182.5,2424.4,160.7z"/>
			<linearGradient id="SVGID_30_" gradientUnits="userSpaceOnUse" x1="2246.4302" y1="71.0116" x2="2425.8127" y2="71.0116">
				<stop  offset="0" style="stop-color:#53CDD3"/>
				<stop  offset="1" style="stop-color:#0D6BA0"/>
			</linearGradient>
			<path class="st39" d="M2246.4,77.4c7.1-26.7,40.5-51.8,73.9-55c34.5-3.3,62.5,10,85.6,35.5c4.5-3.1,9.1-6.3,14.1-9.7
				c1.9,24.1,3.8,47.8,5.7,71.9c-21.8-10.4-43.3-20.6-65.1-31c4.2-2.9,8.1-5.8,12.1-8.3c2.4-1.5,2.3-2.7,1-4.9
				C2346,30,2279.1,29.5,2246.4,77.4z"/>
		</g>
		<rect x="1567.9" y="1071.6" class="st4" width="51.1" height="29.3"/>
		<linearGradient id="SVGID_31_" gradientUnits="userSpaceOnUse" x1="1582.2206" y1="84.6344" x2="1618.9783" y2="84.6344">
			<stop  offset="0" style="stop-color:#53CDD3"/>
			<stop  offset="1" style="stop-color:#0D6BA0"/>
		</linearGradient>
		<polygon class="st40" points="1619,50.7 1582.2,81.7 1619,118.6 		"/>
		<linearGradient id="SVGID_32_" gradientUnits="userSpaceOnUse" x1="2601.0068" y1="133.3116" x2="2701.2505" y2="133.3116">
			<stop  offset="4.475343e-07" style="stop-color:#450094"/>
			<stop  offset="1" style="stop-color:#7FA8FF"/>
		</linearGradient>
		<polygon class="st41" points="2701.3,139.1 2601,172.1 2639,94.5 		"/>
	</g>
</g>
</svg>
